<svg width="24" height="24" viewBox="0 0 24 24" fill="none" xmlns="http://www.w3.org/2000/svg">
<path fill-rule="evenodd" clip-rule="evenodd" d="M21.0734 2.48646L23.0371 4.39543C23.655 4.99613 24 5.81058 24 6.65819V9.34844C24 11.0474 23.3101 12.6726 22.0742 13.874L14.6783 21.0639C14.0603 21.6646 13.2226 22 12.3507 22H11.6493C10.7774 22 9.93966 21.6646 9.32175 21.0639L1.92955 13.874C0.693729 12.6726 0 11.0437 0 9.34844V6.65819C0 5.81058 0.344969 4.99613 0.962881 4.39543L2.92655 2.48646C3.24878 2.17689 3.68473 2 4.13963 2H8.90096C9.84868 2 10.6144 2.74443 10.622 3.66575C10.622 3.66575 10.6296 4.9777 12.0057 4.9777C13.3818 4.9777 13.3894 3.66575 13.3894 3.66575C13.3894 2.74443 14.1551 2 15.1028 2H19.8642C20.3191 2 20.755 2.17689 21.0734 2.48646ZM20.4896 8.81777C20.5162 9.13102 20.7891 9.36687 21.1076 9.36687L21.1114 9.36319H21.1682C21.5132 9.33002 21.7634 9.0352 21.7331 8.70352C21.6117 7.4321 20.99 6.28598 19.9817 5.47154C18.9733 4.65709 17.6958 4.27751 16.3917 4.39175C16.0468 4.42492 15.7928 4.71605 15.8269 5.05141C15.861 5.38677 16.1605 5.63369 16.5054 5.60052C17.4759 5.51207 18.4274 5.79953 19.1818 6.4076C19.9362 7.01567 20.3987 7.87065 20.4896 8.81777Z" fill="#F43319"/>
</svg>
