<svg width="150" height="150" viewBox="0 0 150 150" fill="none" xmlns="http://www.w3.org/2000/svg">
<path d="M135.465 53.1982H131.364C126.625 53.1982 122.801 49.3825 122.801 44.6544V36.4424C122.801 31.7143 118.977 27.8986 114.239 27.8986H99.2747C94.5361 27.8986 90.712 24.083 90.712 19.3548V8.54378C90.712 3.81567 86.8879 0 82.1494 0H67.8783C63.1398 0 59.3157 3.81567 59.3157 8.54378V19.3548C59.3157 24.083 55.4916 27.8986 50.753 27.8986H35.7892C31.0506 27.8986 27.2265 31.7143 27.2265 36.4424V44.6544C27.2265 49.3825 23.4024 53.1982 18.6639 53.1982H14.5626C9.8241 53.1982 6 57.0138 6 61.7419V87.2627C6 91.9908 9.8241 95.8065 14.5626 95.8065H18.6084C23.347 95.8065 27.1711 99.6221 27.1711 104.35V113.806C27.1711 118.535 30.9952 122.35 35.7337 122.35C40.4723 122.35 44.2964 126.166 44.2964 130.894V141.456C44.2964 146.184 48.1205 150 52.859 150H62.059C66.7976 150 70.6217 146.184 70.6217 141.456V126.747C70.6217 124.313 72.5891 122.378 75 122.378C77.4108 122.378 79.3783 124.341 79.3783 126.747V141.456C79.3783 146.184 83.2024 150 87.941 150H97.141C101.88 150 105.704 146.184 105.704 141.456V130.894C105.704 126.166 109.528 122.35 114.266 122.35C119.005 122.35 122.829 118.535 122.829 113.806V104.35C122.829 99.6221 126.653 95.8065 131.392 95.8065H135.437C140.176 95.8065 144 91.9908 144 87.2627V61.7419C144 57.0138 140.176 53.1982 135.437 53.1982H135.465ZM115.125 80.9585C112.437 89.8064 106.452 97.0783 98.2771 101.447C93.1783 104.157 87.6084 105.539 81.9554 105.539C78.5747 105.539 75.1663 105.041 71.841 104.018C69.8181 103.41 68.6819 101.281 69.2916 99.2903C69.9012 97.2719 72.0349 96.1383 74.0578 96.7466C80.9855 98.8479 88.3012 98.129 94.7024 94.7281C101.076 91.3272 105.759 85.659 107.865 78.7465C108.475 76.7281 110.608 75.6221 112.631 76.2028C114.654 76.8111 115.79 78.9401 115.181 80.9585H115.125Z" fill="#1860AA"/>
</svg>
